<?xml version="1.0" encoding="UTF-8" standalone="no"?>
<!DOCTYPE svg PUBLIC "-//W3C//DTD SVG 1.1//EN" "http://www.w3.org/Graphics/SVG/1.1/DTD/svg11.dtd">
<svg xmlns="http://www.w3.org/2000/svg" xmlns:xl="http://www.w3.org/1999/xlink" version="1.1" xmlns:dc="http://purl.org/dc/elements/1.1/" viewBox="311 156 312 313" width="312" height="313">
  <defs/>
  <metadata> Produced by OmniGraffle 7.9.4 
    <dc:date>2019-01-31 23:53:03 +0000</dc:date>
  </metadata>
  <g id="Canvas_1" fill-opacity="1" stroke-opacity="1" fill="none" stroke-dasharray="none" stroke="none">
    <title>Canvas 1</title>
    <g id="Canvas_1: Layer 1">
      <title>Layer 1</title>
      <g id="Graphic_6"/>
      <g id="Graphic_5">
        <title>Insert Link</title>
        <path d="M 375.25197 334.69336 C 375.25197 315.30423 391.0126 299.54348 410.4016 299.54348 L 455.7559 299.54348 L 455.7559 278 L 410.4016 278 C 379.1071 278 353.70866 303.39862 353.70866 334.69336 C 353.70866 365.9881 379.1071 391.3867 410.4016 391.3867 L 455.7559 391.3867 L 455.7559 369.84324 L 410.4016 369.84324 C 391.0126 369.84324 375.25197 354.0825 375.25197 334.69336 Z M 421.74016 346.03203 L 512.4488 346.03203 L 512.4488 323.3547 L 421.74016 323.3547 L 421.74016 346.03203 Z M 523.7874 278 L 478.4331 278 L 478.4331 299.54348 L 523.7874 299.54348 C 543.1764 299.54348 558.937 315.30423 558.937 334.69336 C 558.937 354.0825 543.1764 369.84324 523.7874 369.84324 L 478.4331 369.84324 L 478.4331 391.3867 L 523.7874 391.3867 C 555.0819 391.3867 580.4803 365.9881 580.4803 334.69336 C 580.4803 303.39862 555.0819 278 523.7874 278 Z" fill="black"/>
      </g>
    </g>
  </g>
</svg>
