<?xml version="1.0" encoding="UTF-8" standalone="no"?>
<!DOCTYPE svg PUBLIC "-//W3C//DTD SVG 1.1//EN" "http://www.w3.org/Graphics/SVG/1.1/DTD/svg11.dtd">
<svg xmlns="http://www.w3.org/2000/svg" xmlns:xl="http://www.w3.org/1999/xlink" version="1.1" xmlns:dc="http://purl.org/dc/elements/1.1/" viewBox="291 283 312 313" width="312" height="313">
  <defs/>
  <metadata> Produced by OmniGraffle 7.9.4 
    <dc:date>2019-01-31 23:52:27 +0000</dc:date>
  </metadata>
  <g id="Canvas_1" fill-opacity="1" stroke-opacity="1" fill="none" stroke-dasharray="none" stroke="none">
    <title>Canvas 1</title>
    <g id="Canvas_1: Layer 1">
      <title>Layer 1</title>
      <g id="Graphic_8"/>
      <g id="Graphic_7">
        <title>List</title>
        <path d="M 333.5197 472.7474 L 358.71654 472.7474 L 358.71654 447.55055 L 333.5197 447.55055 L 333.5197 472.7474 Z M 333.5197 523.1411 L 358.71654 523.1411 L 358.71654 497.94425 L 333.5197 497.94425 L 333.5197 523.1411 Z M 333.5197 422.3537 L 358.71654 422.3537 L 358.71654 397.15685 L 333.5197 397.15685 L 333.5197 422.3537 Z M 383.9134 472.7474 L 560.29134 472.7474 L 560.29134 447.55055 L 383.9134 447.55055 L 383.9134 472.7474 Z M 383.9134 523.1411 L 560.29134 523.1411 L 560.29134 497.94425 L 383.9134 497.94425 L 383.9134 523.1411 Z M 383.9134 397.15685 L 383.9134 422.3537 L 560.29134 422.3537 L 560.29134 397.15685 L 383.9134 397.15685 Z" fill="black"/>
      </g>
    </g>
  </g>
</svg>
