<?xml version="1.0" encoding="UTF-8" standalone="no"?>
<!DOCTYPE svg PUBLIC "-//W3C//DTD SVG 1.1//EN" "http://www.w3.org/Graphics/SVG/1.1/DTD/svg11.dtd">
<svg xmlns:dc="http://purl.org/dc/elements/1.1/" xmlns:xl="http://www.w3.org/1999/xlink" version="1.1" xmlns="http://www.w3.org/2000/svg" viewBox="284 274 341 341" width="341" height="341">
  <defs/>
  <metadata> Produced by OmniGraffle 7.9.2 
    <dc:date>2018-11-20 22:34:23 +0000</dc:date>
  </metadata>
  <g id="Canvas_1" stroke-dasharray="none" fill="none" stroke="none" stroke-opacity="1" fill-opacity="1">
    <title>Canvas 1</title>
    <g id="Canvas_1: Layer 1">
      <title>Layer 1</title>
      <g id="Graphic_9">
        <title>My Library Books</title>
        <path d="M 318.85827 342.0315 L 284.84252 342.0315 L 284.84252 580.1417 C 284.84252 598.8504 300.1496 614.1575 318.85827 614.1575 L 556.9685 614.1575 L 556.9685 580.1417 L 318.85827 580.1417 L 318.85827 342.0315 Z M 590.98425 274 L 386.88977 274 C 368.1811 274 352.874 289.3071 352.874 308.01575 L 352.874 512.11023 C 352.874 530.8189 368.1811 546.126 386.88977 546.126 L 590.98425 546.126 C 609.6929 546.126 625 530.8189 625 512.11023 L 625 308.01575 C 625 289.3071 609.6929 274 590.98425 274 Z M 573.9764 427.07087 L 403.89764 427.07087 L 403.89764 393.0551 L 573.9764 393.0551 L 573.9764 427.07087 Z M 505.9449 495.10236 L 403.89764 495.10236 L 403.89764 461.0866 L 505.9449 461.0866 L 505.9449 495.10236 Z M 573.9764 359.03937 L 403.89764 359.03937 L 403.89764 325.02362 L 573.9764 325.02362 L 573.9764 359.03937 Z" fill="black"/>
      </g>
    </g>
  </g>
</svg>
