<?xml version="1.0" encoding="UTF-8" standalone="no"?>
<!DOCTYPE svg PUBLIC "-//W3C//DTD SVG 1.1//EN" "http://www.w3.org/Graphics/SVG/1.1/DTD/svg11.dtd">
<svg xmlns:dc="http://purl.org/dc/elements/1.1/" version="1.1" xmlns="http://www.w3.org/2000/svg" xmlns:xl="http://www.w3.org/1999/xlink" viewBox="466 435 16 16" width="16" height="16">
  <defs/>
  <metadata> Produced by OmniGraffle 7.9.2 
    <dc:date>2018-11-20 21:58:09 +0000</dc:date>
  </metadata>
  <g id="Canvas_1" fill="none" stroke-opacity="1" stroke="none" fill-opacity="1" stroke-dasharray="none">
    <title>Canvas 1</title>
    <g id="Canvas_1: Layer 1">
      <title>Layer 1</title>
      <g id="Graphic_6">
        <title>Timer</title>
        <path d="M 476.0225 435 L 471.56805 435 L 471.56805 436.4848 L 476.0225 436.4848 L 476.0225 435 Z M 473.05287 444.6513 L 474.5377 444.6513 L 474.5377 440.19685 L 473.05287 440.19685 L 473.05287 444.6513 Z M 479.0144 439.744 L 480.0686 438.68976 C 479.7494 438.31114 479.40045 437.9548 479.0218 437.64297 L 477.9676 438.6972 C 476.8169 437.7766 475.3692 437.2272 473.7953 437.2272 C 470.1055 437.2272 467.1136 440.2191 467.1136 443.9089 C 467.1136 447.59865 470.0981 450.59055 473.7953 450.59055 C 477.49246 450.59055 480.47694 447.59865 480.47694 443.9089 C 480.47694 442.335 479.92756 440.8873 479.0144 439.744 Z M 473.7953 449.10574 C 470.92216 449.10574 468.5984 446.782 468.5984 443.9089 C 468.5984 441.03577 470.92216 438.71204 473.7953 438.71204 C 476.6684 438.71204 478.9921 441.03577 478.9921 443.9089 C 478.9921 446.782 476.6684 449.10574 473.7953 449.10574 Z" fill="black"/>
      </g>
      <g id="Graphic_7"/>
    </g>
  </g>
</svg>
